<svg width="40" height="40" viewBox="0 0 40 40" fill="none" xmlns="http://www.w3.org/2000/svg">
<path d="M19.384 27.224C21.64 27.224 23.544 25.96 23.544 23.784C23.544 22.232 22.52 21.24 21.192 20.872V20.792C22.44 20.296 23.16 19.368 23.16 18.088C23.16 16.072 21.608 14.936 19.32 14.936C17.928 14.936 16.792 15.496 15.768 16.392L16.968 17.832C17.672 17.176 18.36 16.792 19.208 16.792C20.216 16.792 20.792 17.336 20.792 18.264C20.792 19.32 20.088 20.072 17.912 20.072V21.752C20.488 21.752 21.176 22.488 21.176 23.64C21.176 24.712 20.36 25.304 19.16 25.304C18.088 25.304 17.224 24.776 16.52 24.088L15.416 25.576C16.248 26.52 17.512 27.224 19.384 27.224Z" fill="#0B7D77"/>
<rect x="1" y="1" width="38" height="38" rx="19" stroke="#0B7D77" stroke-width="2"/>
</svg>
